<?xml version="1.0" standalone="no"?>
<!DOCTYPE svg PUBLIC "-//W3C//DTD SVG 20010904//EN"
 "http://www.w3.org/TR/2001/REC-SVG-20010904/DTD/svg10.dtd">
<svg version="1.0" xmlns="http://www.w3.org/2000/svg"
 width="624.000000pt" height="624.000000pt" viewBox="0 0 624.000000 624.000000"
 preserveAspectRatio="xMidYMid meet">

<g transform="translate(0.000000,624.000000) scale(0.100000,-0.100000)"
fill="#000000" stroke="none">
<path d="M2619 5681 c-13 -10 -28 -34 -34 -52 -7 -19 -18 -34 -26 -34 -9 0
-15 -13 -16 -39 -1 -30 3 -39 18 -43 17 -5 19 -15 19 -89 l0 -84 55 0 55 0 0
85 c0 84 0 85 25 85 23 0 25 4 25 45 0 42 -2 45 -26 45 -31 0 -28 23 4 28 18
3 22 10 22 38 l0 34 -49 0 c-33 0 -56 -6 -72 -19z"/>
<path d="M3110 5521 l0 -179 50 -4 50 -3 0 72 c0 87 5 103 35 103 29 0 35 -16
35 -101 l0 -69 56 0 56 0 -6 100 c-6 105 -14 133 -46 150 -28 15 -82 12 -108
-6 l-22 -15 0 65 0 66 -50 0 -50 0 0 -179z"/>
<path d="M3850 5520 l0 -180 55 0 55 0 1 93 0 92 28 -90 27 -90 45 -3 44 -3
25 93 25 93 3 -92 3 -93 54 0 55 0 0 180 0 180 -68 0 -68 0 -34 -105 c-19 -58
-37 -105 -40 -105 -3 0 -21 47 -40 105 l-34 105 -68 0 -68 0 0 -180z"/>
<path d="M2900 5637 c0 -26 -5 -36 -20 -40 -28 -7 -29 -77 -1 -84 15 -4 20
-16 23 -69 3 -50 9 -69 28 -89 21 -23 31 -26 80 -23 l55 3 0 39 c0 34 -4 41
-25 46 -21 5 -25 12 -28 48 -3 39 -1 42 22 42 24 0 26 3 26 45 0 41 -2 45 -24
45 -21 0 -25 6 -28 33 -3 31 -4 32 -55 35 l-53 3 0 -34z"/>
<path d="M4670 5636 c0 -24 -5 -36 -14 -36 -30 0 -37 -79 -7 -87 15 -4 20 -16
23 -69 5 -87 26 -108 106 -109 l57 0 0 40 c0 34 -4 40 -25 45 -21 5 -25 12
-28 48 -3 39 -1 42 22 42 24 0 26 3 26 44 0 39 -2 43 -22 42 -19 -1 -24 5 -28
34 -5 34 -6 35 -57 38 l-53 3 0 -35z"/>
<path d="M4890 5636 c0 -25 -5 -35 -17 -38 -12 -2 -18 -15 -20 -42 -2 -31 2
-39 17 -43 16 -4 20 -14 20 -53 0 -75 16 -108 58 -121 21 -6 53 -9 72 -7 33 3
35 5 38 45 3 39 1 42 -25 45 -25 3 -28 7 -31 46 -3 39 -1 42 22 42 24 0 26 3
26 45 0 41 -2 45 -24 45 -21 0 -25 6 -28 33 -3 31 -4 32 -55 35 l-53 3 0 -35z"/>
<path d="M2325 5593 c-33 -8 -75 -54 -85 -93 -22 -83 31 -157 121 -167 104
-10 169 43 169 140 0 40 -5 53 -34 84 -30 33 -38 37 -92 39 -32 2 -68 0 -79
-3z m97 -108 c9 -21 8 -28 -7 -45 -35 -39 -84 -9 -71 43 9 38 61 39 78 2z"/>
<path d="M3472 5584 c-88 -45 -87 -196 2 -238 81 -38 216 1 216 63 0 13 -79
15 -112 2 -25 -9 -68 2 -68 19 0 6 35 10 90 10 75 0 92 3 97 17 10 25 -19 94
-49 116 -38 28 -131 34 -176 11z m116 -71 c2 -9 -9 -13 -37 -13 -39 0 -50 8
-34 24 11 11 66 2 71 -11z"/>
<path d="M4362 5584 c-50 -34 -67 -120 -38 -189 24 -57 105 -83 154 -49 12 8
22 10 22 5 0 -7 23 -11 55 -11 l56 0 -3 127 -3 126 -48 4 c-36 3 -49 1 -53
-11 -5 -14 -8 -14 -27 -1 -28 20 -87 19 -115 -1z m136 -116 c3 -33 0 -38 -23
-44 -31 -8 -55 10 -55 40 0 30 20 47 50 44 21 -3 25 -9 28 -40z"/>
<path d="M5132 5583 c-60 -29 -84 -122 -49 -189 26 -51 120 -77 194 -56 30 10
73 49 73 68 0 14 -12 15 -87 12 -61 -2 -87 1 -90 9 -3 9 21 13 89 15 l93 3 -2
44 c-2 47 -21 74 -65 97 -36 19 -115 17 -156 -3z m116 -70 c2 -9 -9 -13 -37
-13 -39 0 -55 13 -28 24 21 8 60 2 65 -11z"/>
<path d="M5390 5470 l0 -130 50 0 50 0 0 58 c0 70 19 102 61 102 28 0 29 1 29
50 0 47 -2 50 -25 50 -14 0 -34 -9 -45 -20 -19 -19 -20 -19 -20 -1 0 15 -8 19
-50 20 l-50 1 0 -130z"/>
<path d="M589 4603 c-12 -13 -14 -380 -17 -2286 -2 -2024 0 -2273 13 -2294
l15 -23 613 0 c336 0 618 4 625 9 23 14 31 80 31 246 0 373 12 1574 17 1620 7
70 17 84 43 61 25 -23 28 -37 106 -524 36 -224 77 -474 90 -557 13 -82 47
-292 75 -465 28 -173 55 -328 62 -343 6 -15 19 -32 29 -37 11 -6 315 -10 792
-10 724 0 775 1 789 18 10 11 32 114 62 292 25 151 66 392 90 535 25 143 79
461 120 706 76 445 91 518 107 502 5 -5 13 -449 19 -988 6 -539 13 -995 16
-1012 2 -18 13 -37 24 -43 12 -6 249 -10 669 -10 577 0 651 2 665 16 14 14 16
236 16 2293 0 2194 -1 2279 -18 2294 -17 16 -113 17 -1175 17 -1139 0 -1157 0
-1177 -20 -11 -11 -22 -30 -24 -42 -3 -13 -37 -288 -76 -613 -39 -324 -74
-607 -78 -628 -8 -45 -23 -52 -35 -17 -4 14 -50 308 -101 655 -86 576 -96 631
-116 647 -21 17 -83 18 -1140 18 -1027 0 -1119 -1 -1131 -17z m2369 -1712 c0
-3 0 -70 1 -148 l1 -143 105 0 104 0 3 151 3 151 110 0 c61 0 115 -1 120 -1 7
-1 9 -140 9 -399 l-2 -397 -113 -2 -114 -1 -7 36 c-4 21 -7 88 -7 150 l-1 112
-105 0 -105 0 -2 -132 c0 -73 -2 -139 -2 -147 -2 -21 -236 -30 -236 -9 -1 7
-1 186 0 398 l0 385 87 5 c94 5 153 2 151 -9z"/>
</g>
</svg>
